<svg viewBox="0 0 61 11" fill="currentColor" xmlns="http://www.w3.org/2000/svg">
  <path
    d="M2.29393 10.7635H0L3.49528 0.581676H6.25393L9.74426 10.7635H7.45033L4.91415 2.90838H4.83505L2.29393 10.7635ZM2.15056 6.76136H7.56898V8.44176H2.15056V6.76136Z" />
  <path d="M13.0294 0.581676V10.7635H10.9234V0.581676H13.0294Z" />
  <path
    d="M18.7556 3.12713V4.71804H14.1826V3.12713H18.7556ZM15.2208 1.29759H17.3268V8.4169C17.3268 8.61245 17.3565 8.76492 17.4158 8.87429C17.4752 8.98035 17.5576 9.05493 17.663 9.09801C17.7718 9.1411 17.897 9.16264 18.0387 9.16264C18.1376 9.16264 18.2365 9.15436 18.3354 9.13778C18.4343 9.1179 18.5101 9.10298 18.5628 9.09304L18.894 10.669C18.7886 10.7022 18.6402 10.7403 18.4491 10.7834C18.2579 10.8298 18.0256 10.858 17.752 10.8679C17.2444 10.8878 16.7995 10.8198 16.4172 10.6641C16.0382 10.5083 15.7432 10.2663 15.5322 9.93821C15.3213 9.61009 15.2175 9.19579 15.2208 8.69531V1.29759Z" />
  <path d="M22.9022 10.2116V3.17188H24.6721V10.2116H22.9022ZM20.2869 7.58168V5.80185H27.2874V7.58168H20.2869Z" />
  <path
    d="M34.891 3.50994C34.8514 3.1089 34.6817 2.79735 34.3818 2.57528C34.0818 2.35322 33.6748 2.24219 33.1606 2.24219C32.8113 2.24219 32.5163 2.2919 32.2757 2.39134C32.0351 2.48745 31.8505 2.62169 31.722 2.79403C31.5968 2.96638 31.5341 3.16193 31.5341 3.38068C31.5275 3.56297 31.5654 3.72206 31.6478 3.85795C31.7335 3.99384 31.8505 4.11151 31.9989 4.21094C32.1472 4.30706 32.3186 4.39157 32.513 4.46449C32.7075 4.53409 32.9151 4.59375 33.1359 4.64347L34.0456 4.86222C34.4872 4.96165 34.8926 5.09422 35.2618 5.25994C35.6309 5.42566 35.9506 5.6295 36.2209 5.87145C36.4911 6.1134 36.7004 6.39844 36.8487 6.72656C37.0003 7.05469 37.0778 7.43087 37.0811 7.85511C37.0778 8.47822 36.9196 9.01847 36.6065 9.47585C36.2967 9.92992 35.8484 10.2829 35.2618 10.5348C34.6784 10.7834 33.9747 10.9077 33.1508 10.9077C32.3334 10.9077 31.6215 10.7817 31.015 10.5298C30.4119 10.2779 29.9406 9.90507 29.6011 9.41122C29.2649 8.91406 29.0886 8.29924 29.0721 7.56676H31.1436C31.1666 7.90814 31.2639 8.19318 31.4353 8.42188C31.6099 8.64725 31.8423 8.81794 32.1323 8.93395C32.4257 9.04664 32.7569 9.10298 33.126 9.10298C33.4886 9.10298 33.8033 9.04995 34.0703 8.94389C34.3406 8.83783 34.5499 8.69034 34.6982 8.50142C34.8465 8.3125 34.9206 8.09541 34.9206 7.85014C34.9206 7.62145 34.8531 7.42921 34.7179 7.27344C34.5861 7.11766 34.3917 6.98509 34.1346 6.87571C33.8808 6.76634 33.5693 6.6669 33.2002 6.57741L32.0977 6.29901C31.2441 6.0902 30.5701 5.76373 30.0757 5.3196C29.5813 4.87547 29.3358 4.27723 29.3391 3.52486C29.3358 2.90838 29.4989 2.36979 29.8285 1.90909C30.1614 1.44839 30.6179 1.08878 31.198 0.830256C31.778 0.571733 32.4372 0.442472 33.1755 0.442472C33.9269 0.442472 34.5828 0.571733 35.1431 0.830256C35.7067 1.08878 36.1451 1.44839 36.4582 1.90909C36.7713 2.36979 36.9328 2.90341 36.9427 3.50994H34.891Z" />
  <path
    d="M40.5875 6.34872V10.7635H38.4814V0.581676H40.5282V4.47443H40.6172C40.7885 4.02367 41.0654 3.67069 41.4477 3.41548C41.83 3.15696 42.3096 3.0277 42.8864 3.0277C43.4137 3.0277 43.8735 3.1437 44.2657 3.37571C44.6612 3.6044 44.9677 3.93419 45.1852 4.36506C45.4061 4.79261 45.5148 5.30469 45.5115 5.90128V10.7635H43.4055V6.27912C43.4088 5.80848 43.2901 5.44224 43.0495 5.1804C42.8122 4.91856 42.4793 4.78764 42.0509 4.78764C41.7641 4.78764 41.5103 4.84896 41.2895 4.97159C41.072 5.09422 40.9006 5.2732 40.7754 5.50852C40.6534 5.74053 40.5908 6.0206 40.5875 6.34872Z" />
  <path
    d="M47.1689 10.7635V3.12713H49.275V10.7635H47.1689ZM48.2269 2.14276C47.9138 2.14276 47.6452 2.03835 47.4211 1.82955C47.2003 1.61742 47.0899 1.36387 47.0899 1.06889C47.0899 0.777225 47.2003 0.526989 47.4211 0.318182C47.6452 0.106061 47.9138 0 48.2269 0C48.54 0 48.807 0.106061 49.0278 0.318182C49.2519 0.526989 49.364 0.777225 49.364 1.06889C49.364 1.36387 49.2519 1.61742 49.0278 1.82955C48.807 2.03835 48.54 2.14276 48.2269 2.14276Z" />
  <path
    d="M55.7984 3.12713V4.71804H50.3589V3.12713H55.7984ZM51.4318 10.7635V2.57528C51.4318 2.02178 51.5389 1.56274 51.7531 1.19815C51.9706 0.83357 52.2673 0.560133 52.643 0.377841C53.0187 0.195549 53.4455 0.104403 53.9234 0.104403C54.2464 0.104403 54.5414 0.129262 54.8084 0.178978C55.0786 0.228694 55.2797 0.273438 55.4115 0.313211L55.0358 1.90412C54.9534 1.8776 54.8512 1.85275 54.7293 1.82955C54.6106 1.80635 54.4887 1.79474 54.3634 1.79474C54.0536 1.79474 53.8377 1.86766 53.7158 2.01349C53.5939 2.15601 53.5329 2.35653 53.5329 2.61506V10.7635H51.4318Z" />
  <path
    d="M60.3714 3.12713V4.71804H55.7984V3.12713H60.3714ZM56.8366 1.29759H58.9426V8.4169C58.9426 8.61245 58.9723 8.76492 59.0316 8.87429C59.091 8.98035 59.1734 9.05493 59.2788 9.09801C59.3876 9.1411 59.5128 9.16264 59.6546 9.16264C59.7534 9.16264 59.8523 9.15436 59.9512 9.13778C60.0501 9.1179 60.1259 9.10298 60.1786 9.09304L60.5098 10.669C60.4044 10.7022 60.2561 10.7403 60.0649 10.7834C59.8737 10.8298 59.6414 10.858 59.3678 10.8679C58.8603 10.8878 58.4153 10.8198 58.033 10.6641C57.654 10.5083 57.359 10.2663 57.148 9.93821C56.9371 9.61009 56.8333 9.19579 56.8366 8.69531V1.29759Z" />
</svg>