<svg viewBox="0 0 22 22" fill="currentColor" xmlns="http://www.w3.org/2000/svg">
  <path
    d="M12.828 16.8936C11.0878 16.2436 9.29788 16.1437 7.6571 16.5937C6.51352 16.8937 5.41967 17.4937 4.42525 18.2437L3.72915 18.8437L3.53027 19.0437L3.97776 19.4436C4.02748 19.4436 4.02748 19.4937 4.0772 19.5437C4.17665 19.6437 4.27609 19.6937 4.42525 19.7937L4.72357 19.9937L5.02189 19.7437C5.07161 19.6937 5.17106 19.5937 5.2705 19.5437C6.16547 18.7937 7.15988 18.2937 8.20401 18.0437C9.54647 17.6937 10.9884 17.7437 12.4303 18.2937C13.6236 18.7437 16.0599 19.2937 18.9934 18.0437L19.0929 17.9937L19.242 17.8437C19.242 17.7937 19.2917 17.7937 19.3415 17.7437C19.5901 17.4437 19.8387 17.1437 20.0375 16.7937L21.032 15.2437L19.4409 16.1436C17.104 17.4436 14.966 17.6936 12.828 16.8936Z" />
  <path
    d="M6.01662 11.4938C7.35908 11.1438 8.80098 11.1938 10.2429 11.7438C11.8339 12.3438 15.911 13.1938 20.4853 9.04381L21.2311 8.29381L21.2809 8.2438L21.4798 8.04381L21.3803 7.79381C21.3306 7.59381 21.2311 7.34381 21.1317 7.09381L20.8831 6.3938L20.3859 6.8938C20.3362 6.9938 20.2367 7.0438 20.1373 7.1438C17.9496 9.3938 14.5686 11.6938 10.6904 10.2938C8.95014 9.64381 7.1602 9.5438 5.51942 9.9938C3.92836 10.4438 2.53617 11.2938 1.24344 12.4938V12.4438L0.497627 13.2438C0.497627 13.2938 0.447915 13.2938 0.398195 13.3438L0.249023 13.4938L0.298747 13.6938C0.348468 13.9438 0.447906 14.1938 0.497627 14.4438L0.795954 15.2438L1.29316 14.5938C1.34288 14.4938 1.44232 14.4438 1.49204 14.3438C2.53617 13.3938 3.97808 12.0438 6.01662 11.4938Z" />
  <path
    d="M1.19331 10.5938C2.33688 9.39381 3.62961 8.64381 5.02179 8.2438C6.36425 7.89381 7.80615 7.9438 9.24805 8.4938C13.7229 10.1438 17.6011 7.4438 19.2916 5.9938L19.938 5.34381L20.1866 5.1438L19.9877 4.84381C19.8386 4.69381 19.7391 4.49381 19.59 4.29381L19.2916 3.8938L18.9436 4.2438C18.8939 4.2938 18.7944 4.3938 18.7447 4.4438C16.6564 6.4438 13.4246 8.49381 9.74525 7.09381C8.00503 6.44381 6.21509 6.34381 4.57431 6.79381C3.53017 7.09381 2.53576 7.5938 1.54134 8.2438L0.497207 9.09381C0.397765 9.19381 0.348045 9.24381 0.248603 9.34381L0.149171 9.4438V9.59381C0.0994504 9.94381 0.0994444 10.2938 0.0497237 10.5938L0 11.8438L0.845257 10.9438C0.944699 10.8438 1.04415 10.6938 1.19331 10.5938Z" />
  <path
    d="M14.2695 20.2938L14.1701 20.5938L14.2695 20.2938C14.1203 20.2438 14.0209 20.1938 13.8717 20.1438C12.1315 19.4938 10.3416 19.3938 8.70078 19.8438C8.35274 19.9438 8.0047 20.0438 7.65666 20.1938L6.46335 20.7438L6.16504 20.8938L7.15945 21.2438C7.45778 21.3438 7.75609 21.4438 8.05442 21.5438L8.20357 21.5938L8.35275 21.5438C8.50191 21.4938 8.65107 21.3938 8.80023 21.3938C8.89967 21.3938 8.99911 21.3438 9.09856 21.2938C10.2919 20.9938 11.5846 20.9938 12.9768 21.4438C13.1259 21.4938 13.2254 21.5438 13.3745 21.5938L13.6231 21.6938L13.7723 21.6438C14.1203 21.5438 14.5181 21.4438 14.8164 21.2938L16.2086 20.7938L14.7667 20.4438C14.6175 20.3938 14.4187 20.3438 14.2695 20.2938Z" />
  <path
    d="M21.8769 9.94385L21.1311 10.6938C21.0317 10.7938 20.9322 10.8939 20.8328 10.9939C18.7943 12.9439 15.5127 15.0438 11.8334 13.6438C10.0931 12.9938 8.3032 12.8939 6.66242 13.3439C5.12107 13.7939 3.72888 14.5939 2.48587 15.7939L1.8395 16.4939L1.64062 16.7439L1.8395 17.0439C1.98867 17.2439 2.08811 17.3939 2.18756 17.5939L2.48587 18.0439L2.83392 17.5939C2.88364 17.5439 2.98308 17.4438 3.0328 17.3938C4.22609 16.0938 5.51883 15.2938 7.01045 14.8938C8.35291 14.5438 9.79481 14.5938 11.2367 15.1438C12.4797 15.5938 13.7725 15.7439 15.0652 15.5939C17.3524 15.3439 19.6395 14.0439 21.33 12.5939C21.4295 12.4939 21.5289 12.4439 21.6283 12.3439L21.7775 12.1938V12.0439C21.7775 11.7439 21.8272 11.3939 21.8272 11.0939L21.8769 9.94385Z" />
  <path
    d="M2.98369 5.34395L2.83453 5.04395L2.98369 5.34395C3.28201 5.19395 3.63007 5.09394 3.92839 4.99394C5.27085 4.64394 6.71275 4.69394 8.15465 5.24394C9.09934 5.59394 10.044 5.74394 11.0882 5.74394C13.1764 5.74394 15.2647 4.99395 17.2038 3.54395L17.9496 2.94394L18.1982 2.74394L17.7507 2.39394C17.6016 2.24394 17.4027 2.09394 17.2038 1.99394L16.9055 1.79395L16.6569 1.99394C16.5574 2.04394 16.5077 2.14394 16.4083 2.19394C13.7731 4.19394 11.1379 4.74395 8.65185 3.79395C6.86191 3.14395 5.07196 2.99395 3.28201 3.54395C3.13285 3.59395 2.98369 3.64394 2.78481 3.69394L2.68537 3.74394L2.5362 3.89394C2.5362 3.94394 2.48649 3.94394 2.43677 3.99394C2.23789 4.29394 1.98928 4.54395 1.79039 4.84395L0.845703 6.29395L2.38705 5.49394C2.63565 5.49394 2.83452 5.39395 2.98369 5.34395Z" />
  <path
    d="M7.06079 1.94374L7.20995 1.99374C7.85632 2.24374 8.85074 2.49374 10.0938 2.49374C11.3865 2.49374 12.6295 2.19374 13.8725 1.69374L15.4139 0.943741L14.3697 0.59375C14.0714 0.49375 13.7731 0.39375 13.425 0.34375H13.2759L13.1267 0.393738C12.9776 0.443738 12.8284 0.54375 12.6792 0.59375C11.1876 1.14375 9.69599 1.24375 8.25409 0.84375C8.10493 0.79375 7.95577 0.743741 7.8066 0.693741L7.65745 0.643738L7.50828 0.693741C7.20995 0.793741 6.91164 0.893747 6.61331 1.04375L5.46973 1.54375L6.66303 1.89374C6.76248 1.84374 6.91163 1.89374 7.06079 1.94374Z" />
</svg>