<svg xmlns="http://www.w3.org/2000/svg" fill="currentColor" viewBox="0 0 122 22">
  <path
    d="M4.6136 21.527H0L7.0298 1.1634h5.5483L19.598 21.527h-4.6136L9.8835 5.8168h-.159zm-.2883-8.0043H15.223v3.3608H4.3253zM26.2053 1.1634V21.527h-4.2358V1.1634zM37.7219 6.2543V9.436h-9.1974V6.2543zm-7.1093-3.6591h4.2358v14.2386q0 .5866.1789.9148.179.3182.4972.4474.3281.1293.7557.1293.2982 0 .5966-.0497.2982-.0597.4574-.0895l.6662 3.152q-.3183.0994-.8949.2287-.5767.1392-1.402.169-1.5313.0597-2.6847-.4077-1.1435-.4672-1.7798-1.4517-.6364-.9843-.6264-2.4858zM46.0618 20.4233V6.3438h3.5596v14.0795zm-5.26-5.2599v-3.5597h14.0796v3.5597zM70.174 7.0199q-.1193-1.2032-1.0241-1.8693-.9049-.6662-2.456-.6662-1.054 0-1.7798.2983-.7258.2883-1.1137.8054-.3778.517-.3778 1.1733-.0199.5468.2287.9545.2585.4077.7059.706.4475.2883 1.0341.507.5867.209 1.2529.358l1.8295.4375q1.3324.2983 2.446.7955t1.929 1.223 1.2628 1.7102q.4574.9844.4673 2.2571-.01 1.8693-.9545 3.2415-.9346 1.3622-2.7046 2.1179-1.7598.7457-4.2457.7457-2.4659 0-4.2955-.7556-1.8195-.7557-2.8437-2.2373-1.0142-1.4914-1.0639-3.6889h4.1662q.0696 1.0242.5866 1.7103.527.676 1.402 1.0241.885.3381 1.9986.3381 1.0938 0 1.8991-.3182.8154-.3182 1.2628-.885.4475-.5667.4475-1.3025 0-.6861-.4077-1.1534-.3978-.4673-1.1733-.7955-.7656-.328-1.8793-.5966l-2.2173-.5568q-2.5753-.6264-4.0668-1.9588t-1.4815-3.5895q-.01-1.8494.9844-3.2315 1.0043-1.382 2.7542-2.1577 1.75-.7755 3.9773-.7756 2.267 0 3.9574.7756 1.7003.7755 2.6449 2.1577.9445 1.382.9744 3.2017zM81.631 12.6974v8.8296h-4.2358V1.1634h4.1165v7.7855h.179q.517-1.3523 1.6705-2.118 1.1534-.7755 2.8934-.7755 1.5909 0 2.7742.696 1.1931.6861 1.8494 1.9787.6662 1.2827.6562 3.0725v9.7244h-4.2357v-8.9688q.0099-1.4118-.716-2.1974-.7158-.7855-2.0085-.7855-.865 0-1.5312.3679-.6562.3678-1.0341 1.0738-.3679.6961-.3779 1.6804M94.8679 21.527V6.2543h4.2358V21.527zm2.1278-17.2415q-.9445 0-1.6207-.6264-.6662-.6364-.6662-1.5213 0-.875.6662-1.5014Q96.0512 0 96.9957 0q.9447 0 1.6108.6364.6762.6264.6762 1.5014 0 .885-.6762 1.5213-.6661.6264-1.6108.6264M112.224 6.2543V9.436h-10.94V6.2543zm-8.783 15.2727V5.1506c0-1.107.216-2.0251.647-2.7543.437-.7292 1.034-1.276 1.789-1.6406.756-.3646 1.615-.5469 2.576-.5469.649 0 1.243.0497 1.78.1492.543.0994.948.1889 1.213.2684l-.756 3.1818c-.166-.053-.371-.1027-.616-.1491a3.85 3.85 0 0 0-.736-.0696c-.623 0-1.058.1458-1.303.4375-.245.285-.368.686-.368 1.2031V21.527zM121.421 6.2543V9.436h-9.197V6.2543zm-7.109-3.6591h4.236v14.2386c0 .3911.059.696.179.9148.119.2121.285.3613.497.4474.218.0862.47.1293.755.1293q.2985 0 .597-.0497c.199-.0398.351-.0696.457-.0895l.667 3.152c-.213.0663-.511.1425-.895.2287-.385.0928-.852.1491-1.402.169q-1.5315.0597-2.685-.4077c-.762-.3115-1.356-.7954-1.78-1.4517s-.633-1.4848-.626-2.4858z" />
</svg>