<svg xmlns="http://www.w3.org/2000/svg" fill="none" viewBox="0 0 20 20">
  <path stroke="currentColor" stroke-linecap="round" stroke-linejoin="round" stroke-width="1.66667"
    d="M7.5 17.5001v-6.1667c0-.4667 0-.7.0908-.8783a.833.833 0 0 1 .3642-.3642c.1783-.0908.4116-.0908.8783-.0908h2.3334c.4667 0 .7 0 .8783.0908a.834.834 0 0 1 .3642.3642c.0908.1783.0908.4116.0908.8783v6.1667M9.1814 2.3035l-5.652 4.3959c-.3777.2938-.5666.4408-.7027.6248a1.67 1.67 0 0 0-.265.5418C2.5 8.0864 2.5 8.3257 2.5 8.8043v6.0291c0 .9335 0 1.4002.1817 1.7567.1597.3136.4147.5686.7283.7284.3565.1816.8232.1816 1.7567.1816h9.6666c.9335 0 1.4002 0 1.7567-.1816a1.666 1.666 0 0 0 .7283-.7284c.1817-.3565.1817-.8232.1817-1.7567v-6.029c0-.4787 0-.718-.0617-.9384a1.67 1.67 0 0 0-.265-.5418c-.1361-.184-.325-.331-.7028-.6248l-5.6519-4.396c-.2928-.2277-.4392-.3415-.6008-.3853a.834.834 0 0 0-.4356 0c-.1616.0438-.308.1576-.6008.3854" />
</svg>